{"title":"Movie Magic - Forced Perspective TVRip greek hard subs","uid":6682970,"size":456167424,"categoryP":"video","categoryS":"tv_shows","magnet":"?xt=urn:btih:d13d2998e2631fe9a0539be58de62090ec8468bb&amp;dn=Movie+Magic+-+Forced+Perspective+TVRip+greek+hard+subs&amp;tr=udp%3A%2F%2Ftracker.openbittorrent.com%3A80&amp;tr=udp%3A%2F%2Fopen.demonii.com%3A1337&amp;tr=udp%3A%2F%2Ftracker.coppersurfer.tk%3A6969&amp;tr=udp%3A%2F%2Fexodus.desync.com%3A6969","seeders":0,"leechers":0,"uploader":"filfiesta","files":-1,"time":1316276297,"description":"Here is an episode of the Movie Magic TV series. It's about the forced prespective technique that used to create giant people, monsters and little as well.\nYou'll also see an extensive making of this techinique, for the HBO's ''Attack of the 50 Ft. Woman'', starring Daryl Hannah.\nRipped from a Greek TV network. \n\n &lt;a href=&quot;\nhttp://www.imdb.com/title/tt0108865/&quot; rel=&quot;nofollow&quot; target=&quot;_NEW&quot;&gt;\nhttp://www.imdb.com/title/tt0108865/&lt;/a&gt;\n\n\n\nSPECS\n\nSubs                             : Greek hard subs\n\nVideo\nFormat                           : MPEG-4 Visual\nCodec ID                         : XVID\nCodec ID/Hint                    : XviD\nDuration                         : 21mn 51s\nBit rate                         : 2 584 Kbps\nWidth                            : 640 pixels\nHeight                           : 480 pixels\nDisplay aspect ratio             : 4:3\nFrame rate                       : 25.000 fps\nColor space                      : YUV\nChroma subsampling               : 4:2:0\nBit depth                        : 8 bits\nScan type                        : Progressive\nCompression mode                 : Lossy\nBits/(Pixel*Frame)               : 0.336\nStream size                      : 404 MiB (93%)\n\nAudio\nFormat                           : MPEG Audio\nFormat version                   : Version 1\nFormat profile                   : Layer 3\nMode                             : Joint stereo\nMode extension                   : MS Stereo\nCodec ID/Hint                    : MP3\nDuration                         : 21mn 51s\nBit rate mode                    : Constant\nBit rate                         : 192 Kbps\nChannel(s)                       : 2 channels\nSampling rate                    : 48.0 KHz\nCompression mode                 : Lossy\nStream size                      : 30.0 MiB (7%)\n\n\n\nscreenshots &lt;a href=&quot;\nhttp://img268.imageshack.us/img268/9189/77557624.jpg&quot; rel=&quot;nofollow&quot; target=&quot;_NEW&quot;&gt;\nhttp://img268.imageshack.us/img268/9189/77557624.jpg&lt;/a&gt; &lt;a href=&quot;\nhttp://img84.imageshack.us/img84/5775/82272822.jpg&quot; rel=&quot;nofollow&quot; target=&quot;_NEW&quot;&gt;\nhttp://img84.imageshack.us/img84/5775/82272822.jpg&lt;/a&gt; &lt;a href=&quot;\nhttp://img4.imageshack.us/img4/6641/49579448.jpg&quot; rel=&quot;nofollow&quot; target=&quot;_NEW&quot;&gt;\nhttp://img4.imageshack.us/img4/6641/49579448.jpg&lt;/a&gt; &lt;a href=&quot;\nhttp://img89.imageshack.us/img89/6526/16016510.jpg&quot; rel=&quot;nofollow&quot; target=&quot;_NEW&quot;&gt;\nhttp://img89.imageshack.us/img89/6526/16016510.jpg&lt;/a&gt;\n\n\nENJOY AND SEED FOR THE OTHERS.","torrent":{"xt":"urn:btih:d13d2998e2631fe9a0539be58de62090ec8468bb","amp;dn":"Movie+Magic+-+Forced+Perspective+TVRip+greek+hard+subs","amp;tr":["udp%3A%2F%2Ftracker.openbittorrent.com%3A80","udp%3A%2F%2Fopen.demonii.com%3A1337","udp%3A%2F%2Ftracker.coppersurfer.tk%3A6969","udp%3A%2F%2Fexodus.desync.com%3A6969"],"infoHash":"d13d2998e2631fe9a0539be58de62090ec8468bb","infoHashBuffer":{"type":"Buffer","data":[209,61,41,152,226,99,31,233,160,83,155,229,141,230,32,144,236,132,104,187]},"announce":[],"urlList":[]}}